<svg xmlns="http://www.w3.org/2000/svg" viewBox="0.88 -67.48 396.44 70.46" width="396.44" height="70.46" role="img" aria-label="DataBates" xmlns:c2pa="http://c2pa.org/manifest"><metadata><c2pa:manifest>AAAWgmp1bWIAAAAeanVtZGMycGEAEQAQgAAAqgA4m3EDYzJwYQAAABZcanVtYgAAAEdqdW1kYzJtYQARABCAAACqADibcQN1cm46YzJwYTpiNGQ0Y2NkMi04N2Q0LTRjNTItYTBkNi02OTNkNjNmZmQ3OWMAAAADl2p1bWIAAAApanVtZGMyYXMAEQAQgAAAqgA4m3EDYzJwYS5hc3NlcnRpb25zAAAAALxqdW1iAAAARGp1bWRjYm9yABEAEIAAAKoAOJtxE2MycGEuaW5ncmVkaWVudC52MwAAAAAYYzJzaGzp5MfwnHuJQX8lM7mB3FsAAABwY2JvcqNpZGM6Zm9ybWF0bWltYWdlL3N2Zyt4bWxqaW5zdGFuY2VJRHgseG1wOmlpZDoyMzEyNTg4NC0wOGExLTQ2YzAtODJhZS0wYjAzNGI4ODdkNmZscmVsYXRpb25zaGlwaHBhcmVudE9mAAAB4mp1bWIAAABBanVtZGNib3IAEQAQgAAAqgA4m3ETYzJwYS5hY3Rpb25zLnYyAAAAABhjMnNokD8RuW+Ukhp2Tfl3Hq7sBgAAAZljYm9yomdhY3Rpb25zgqJmYWN0aW9ua2MycGEub3BlbmVkanBhcmFtZXRlcnOha2luZ3JlZGllbnRzgaJjdXJseC1zZWxmI2p1bWJmPWMycGEuYXNzZXJ0aW9ucy9jMnBhLmluZ3JlZGllbnQudjNkaGFzaFggMgsA+BKZ+JHf7WLjmQEN+4aP1Dbb8i0em7YAX1UK53+kZmFjdGlvbngdY29tLmFudGhyb3BpYy5jbGF1ZGUucHJvdmlkZWRqcGFyYW1ldGVyc6F4H2NvbS5hbnRocm9waWMub3JpZ2luLWNvbmZpZGVuY2VndW5rbm93bmtkZXNjcmlwdGlvbnhmQ2xhdWRlIHByb3ZpZGVkIHRoaXMgZmlsZSBhdCB0aGUgcmVxdWVzdCBvZiBhIHVzZXIgYW5kIG1heSBoYXZlIGNyZWF0ZWQgb3IgbW9kaWZpZWQgdGhlIGZpbGUgY29udGVudHMubXNvZnR3YXJlQWdlbnShZG5hbWVmQ2xhdWRlcmFsbEFjdGlvbnNJbmNsdWRlZPUAAADIanVtYgAAAEBqdW1kY2JvcgARABCAAACqADibcRNjMnBhLmhhc2guZGF0YQAAAAAYYzJzaNkKvEfrSw2UWbSFVD3Zcp8AAACAY2JvcqVjYWxnZnNoYTI1NmNwYWRNAAAAAAAAAAAAAAAAAGRoYXNoWCDdJOP3bBw3GApqBCbS5805IeIzkxGUGxVGR0jUN0gFe2RuYW1lbmp1bWJmIG1hbmlmZXN0amV4Y2x1c2lvbnOBomVzdGFydBjKZmxlbmd0aBkeBAAAAj5qdW1iAAAAJ2p1bWRjMmNsABEAEIAAAKoAOJtxA2MycGEuY2xhaW0udjIAAAACD2Nib3KlY2FsZ2ZzaGEyNTZpc2lnbmF0dXJleE1zZWxmI2p1bWJmPS9jMnBhL3VybjpjMnBhOmI0ZDRjY2QyLTg3ZDQtNGM1Mi1hMGQ2LTY5M2Q2M2ZmZDc5Yy9jMnBhLnNpZ25hdHVyZWppbnN0YW5jZUlEeCx4bXA6aWlkOjZjMWExYzNiLWUzM2ItNDJkOC05ZWE3LWM1ZGI3NDg1Y2Y1NHJjcmVhdGVkX2Fzc2VydGlvbnODomN1cmx4LXNlbGYjanVtYmY9YzJwYS5hc3NlcnRpb25zL2MycGEuaW5ncmVkaWVudC52M2RoYXNoWCAyCwD4Epn4kd/tYuOZAQ37ho/UNtvyLR6btgBfVQrnf6JjdXJseCpzZWxmI2p1bWJmPWMycGEuYXNzZXJ0aW9ucy9jMnBhLmFjdGlvbnMudjJkaGFzaFggtExnEtrZZA8BzBYmcGbPqVl3EqV4Mz+m1KPGYItCS3yiY3VybHgpc2VsZiNqdW1iZj1jMnBhLmFzc2VydGlvbnMvYzJwYS5oYXNoLmRhdGFkaGFzaFggatw8qtXAkPYzUldzGgNVDGsytojZtF7LIlhtysZDZdR0Y2xhaW1fZ2VuZXJhdG9yX2luZm+jZG5hbWVvQW50aHJvcGljIEZpbGVzZ3ZlcnNpb25lMS4wLjBrc3BlY1ZlcnNpb25lMi40LjAAABA4anVtYgAAAChqdW1kYzJjcwARABCAAACqADibcQNjMnBhLnNpZ25hdHVyZQAAABAIY2JvctKEWQISogEmGCFZAgowggIGMIIBjaADAgECAhRA5aAK7sI50L64g/oGQgU9Z1UTADAKBggqhkjOPQQDAzBJMRcwFQYDVQQKEw5BbnRocm9waWMsIFBCQzEuMCwGA1UEAxMlQW50aHJvcGljIENvbnRlbnQgQ3JlZGVudGlhbHMgUm9vdCBDQTAeFw0yNjA4MDcxODQzNTZaFw0yODA4MDYxOTQzNTZaMEQxFzAVBgNVBAoTDkFudGhyb3BpYywgUEJDMSkwJwYDVQQDEyBBbnRocm9waWMgQ2xhdWRlIENvbnRlbnQgU2lnbmluZzBZMBMGByqGSM49AgEGCCqGSM49AwEHA0IABJh6CmvLUBgFFNU0vUKlOVtE6djd17L5SuwX0LemFisBM3dkd/3cyjxFA3Qo5S46fX0/ihY0VZ7mfb9KF703t5OjWDBWMA4GA1UdDwEB/wQEAwIHgDAVBgNVHSUEDjAMBgorBgEEAYPoXgIBMAwGA1UdEwEB/wQCMAAwHwYDVR0jBBgwFoAUzlHiBIFOZFsj+OPEz5o+nMHXXMIwCgYIKoZIzj0EAwMDZwAwZAIwMXMdFJ4BetLLVY7ORuE9noqbbAZOZn/aArXyTwFAZfKrPzxF2vPoJNf1+UCdg1XGAjBwX1zd9WGqYkqmL5SFqw1QySjr1zJfpJM9+1rdDwSPLMOPOjKuiXjoU/pUUeG9RwmhY3BhZFkNngAAAAAAAAAAAAAAAAAAAAAAAAAAAAAAAAAAAAAAAAAAAAAAAAAAAAAAAAAAAAAAAAAAAAAAAAAAAAAAAAAAAAAAAAAAAAAAAAAAAAAAAAAAAAAAAAAAAAAAAAAAAAAAAAAAAAAAAAAAAAAAAAAAAAAAAAAAAAAAAAAAAAAAAAAAAAAAAAAAAAAAAAAAAAAAAAAAAAAAAAAAAAAAAAAAAAAAAAAAAAAAAAAAAAAAAAAAAAAAAAAAAAAAAAAAAAAAAAAAAAAAAAAAAAAAAAAAAAAAAAAAAAAAAAAAAAAAAAAAAAAAAAAAAAAAAAAAAAAAAAAAAAAAAAAAAAAAAAAAAAAAAAAAAAAAAAAAAAAAAAAAAAAAAAAAAAAAAAAAAAAAAAAAAAAAAAAAAAAAAAAAAAAAAAAAAAAAAAAAAAAAAAAAAAAAAAAAAAAAAAAAAAAAAAAAAAAAAAAAAAAAAAAAAAAAAAAAAAAAAAAAAAAAAAAAAAAAAAAAAAAAAAAAAAAAAAAAAAAAAAAAAAAAAAAAAAAAAAAAAAAAAAAAAAAAAAAAAAAAAAAAAAAAAAAAAAAAAAAAAAAAAAAAAAAAAAAAAAAAAAAAAAAAAAAAAAAAAAAAAAAAAAAAAAAAAAAAAAAAAAAAAAAAAAAAAAAAAAAAAAAAAAAAAAAAAAAAAAAAAAAAAAAAAAAAAAAAAAAAAAAAAAAAAAAAAAAAAAAAAAAAAAAAAAAAAAAAAAAAAAAAAAAAAAAAAAAAAAAAAAAAAAAAAAAAAAAAAAAAAAAAAAAAAAAAAAAAAAAAAAAAAAAAAAAAAAAAAAAAAAAAAAAAAAAAAAAAAAAAAAAAAAAAAAAAAAAAAAAAAAAAAAAAAAAAAAAAAAAAAAAAAAAAAAAAAAAAAAAAAAAAAAAAAAAAAAAAAAAAAAAAAAAAAAAAAAAAAAAAAAAAAAAAAAAAAAAAAAAAAAAAAAAAAAAAAAAAAAAAAAAAAAAAAAAAAAAAAAAAAAAAAAAAAAAAAAAAAAAAAAAAAAAAAAAAAAAAAAAAAAAAAAAAAAAAAAAAAAAAAAAAAAAAAAAAAAAAAAAAAAAAAAAAAAAAAAAAAAAAAAAAAAAAAAAAAAAAAAAAAAAAAAAAAAAAAAAAAAAAAAAAAAAAAAAAAAAAAAAAAAAAAAAAAAAAAAAAAAAAAAAAAAAAAAAAAAAAAAAAAAAAAAAAAAAAAAAAAAAAAAAAAAAAAAAAAAAAAAAAAAAAAAAAAAAAAAAAAAAAAAAAAAAAAAAAAAAAAAAAAAAAAAAAAAAAAAAAAAAAAAAAAAAAAAAAAAAAAAAAAAAAAAAAAAAAAAAAAAAAAAAAAAAAAAAAAAAAAAAAAAAAAAAAAAAAAAAAAAAAAAAAAAAAAAAAAAAAAAAAAAAAAAAAAAAAAAAAAAAAAAAAAAAAAAAAAAAAAAAAAAAAAAAAAAAAAAAAAAAAAAAAAAAAAAAAAAAAAAAAAAAAAAAAAAAAAAAAAAAAAAAAAAAAAAAAAAAAAAAAAAAAAAAAAAAAAAAAAAAAAAAAAAAAAAAAAAAAAAAAAAAAAAAAAAAAAAAAAAAAAAAAAAAAAAAAAAAAAAAAAAAAAAAAAAAAAAAAAAAAAAAAAAAAAAAAAAAAAAAAAAAAAAAAAAAAAAAAAAAAAAAAAAAAAAAAAAAAAAAAAAAAAAAAAAAAAAAAAAAAAAAAAAAAAAAAAAAAAAAAAAAAAAAAAAAAAAAAAAAAAAAAAAAAAAAAAAAAAAAAAAAAAAAAAAAAAAAAAAAAAAAAAAAAAAAAAAAAAAAAAAAAAAAAAAAAAAAAAAAAAAAAAAAAAAAAAAAAAAAAAAAAAAAAAAAAAAAAAAAAAAAAAAAAAAAAAAAAAAAAAAAAAAAAAAAAAAAAAAAAAAAAAAAAAAAAAAAAAAAAAAAAAAAAAAAAAAAAAAAAAAAAAAAAAAAAAAAAAAAAAAAAAAAAAAAAAAAAAAAAAAAAAAAAAAAAAAAAAAAAAAAAAAAAAAAAAAAAAAAAAAAAAAAAAAAAAAAAAAAAAAAAAAAAAAAAAAAAAAAAAAAAAAAAAAAAAAAAAAAAAAAAAAAAAAAAAAAAAAAAAAAAAAAAAAAAAAAAAAAAAAAAAAAAAAAAAAAAAAAAAAAAAAAAAAAAAAAAAAAAAAAAAAAAAAAAAAAAAAAAAAAAAAAAAAAAAAAAAAAAAAAAAAAAAAAAAAAAAAAAAAAAAAAAAAAAAAAAAAAAAAAAAAAAAAAAAAAAAAAAAAAAAAAAAAAAAAAAAAAAAAAAAAAAAAAAAAAAAAAAAAAAAAAAAAAAAAAAAAAAAAAAAAAAAAAAAAAAAAAAAAAAAAAAAAAAAAAAAAAAAAAAAAAAAAAAAAAAAAAAAAAAAAAAAAAAAAAAAAAAAAAAAAAAAAAAAAAAAAAAAAAAAAAAAAAAAAAAAAAAAAAAAAAAAAAAAAAAAAAAAAAAAAAAAAAAAAAAAAAAAAAAAAAAAAAAAAAAAAAAAAAAAAAAAAAAAAAAAAAAAAAAAAAAAAAAAAAAAAAAAAAAAAAAAAAAAAAAAAAAAAAAAAAAAAAAAAAAAAAAAAAAAAAAAAAAAAAAAAAAAAAAAAAAAAAAAAAAAAAAAAAAAAAAAAAAAAAAAAAAAAAAAAAAAAAAAAAAAAAAAAAAAAAAAAAAAAAAAAAAAAAAAAAAAAAAAAAAAAAAAAAAAAAAAAAAAAAAAAAAAAAAAAAAAAAAAAAAAAAAAAAAAAAAAAAAAAAAAAAAAAAAAAAAAAAAAAAAAAAAAAAAAAAAAAAAAAAAAAAAAAAAAAAAAAAAAAAAAAAAAAAAAAAAAAAAAAAAAAAAAAAAAAAAAAAAAAAAAAAAAAAAAAAAAAAAAAAAAAAAAAAAAAAAAAAAAAAAAAAAAAAAAAAAAAAAAAAAAAAAAAAAAAAAAAAAAAAAAAAAAAAAAAAAAAAAAAAAAAAAAAAAAAAAAAAAAAAAAAAAAAAAAAAAAAAAAAAAAAAAAAAAAAAAAAAAAAAAAAAAAAAAAAAAAAAAAAAAAAAAAAAAAAAAAAAAAAAAAAAAAAAAAAAAAAAAAAAAAAAAAAAAAAAAAAAAAAAAAAAAAAAAAAAAAAAAAAAAAAAAAAAAAAAAAAAAAAAAAAAAAAAAAAAAAAAAAAAAAAAAAAAAAAAAAAAAAAAAAAAAAAAAAAAAAAAAAAAAAAAAAAAAAAAAAAAAAAAAAAAAAAAAAAAAAAAAAAAAAAAAAAAAAAAAAAAAAAAAAAAAAAAAAAAAAAAAAAAAAAAAAAAAAAAAAAAAAAAAAAAAAAAAAAAAAAAAAAAAAAAAAAAAAAAAAAAAAAAAAAAAAAAAAAAAAAAAAAAAAAAAAAAAAAAAAAAAAAAAAAAAAAAAAAAAAAAAAAAAAAAAAAAAAAAAAAAAAAAAAAAAAAAAAAAAAAAAAAAAAAAAAAAAAAAAAAAAAAAAAAAAAAAAAAAAAAAAAAAAAAAAAAAAAAAAAAAAAAAAAAAAAAAAAAAAAAAAAAAAAAAAAAAAAAAAAAAAAAAAAAAAAAAAAAAAAAAAAAAAAAAAAAAAAAAAAAAAAAAAAAAAAAAAAAAAAAAAAAAAAAAAAAAAAAAAAAAAAAAAAAAAAAAAAAAAAAAAAAAAAAAAAAAAAAAAAAAAAAAAAAAAAAAAAAAAAAAAAAAAAAAAAAAAAAAAAAAAAAAAAAAAAAAAAAAAAAAAAAAAAAAAAAAAAAAAAAAAAAAAAAAAAAAAAAAAAAAAAAAAAAAAAAAAAAAAAAAAAAAAAAAAAAAAAAAAAAAAAAAAAAAAAAAAAAAAAAAAAAAAAAAAAAAAAAAAAAAAAAAAAAAAAAAAAAAAAAAAAAAAAAAAAAAAAAAAAAAAAAAAAAAAAAAAAAAAAAAAAAAAAAAAAAAAAAAAAAAAAAAAAAAAAAAAAAAAAAAAAAAAAAAAAAAAAAAAAAAAAAAAAAAAAAAAAAAAAAAAAAAAAAAAAAAAAAAAAAAAAAAAAAAAAAAAAAAAAAAAAAAAAAAAAAAAAAAAAAAAAAAAAAAAAAAAAAAAAAAAAAAAAAAAAAAAAAAAAAAAAAAAAAAAAAAAAAAAAAAAAAAAAAAAAAAAAAAAAAAAAAAAAAAAAAAAAAAAAAAAAAAAAAAAAAAAAAAAAAAAAAAAAAAAAAAAAAAAAAAAAAAAAAAAAAAAAAAAAAAAAAAAAAAAAAAAAAAAAAAAAAAAAAAAAAAAAAAAAAAAAAAAAAAAAAAAAAAAAAAAAAAAAAAAAAAAAAAAAAAAAAAAAAAAAAAAAAAAAAAAAAAAAAAAAAAAAAAAAAAAAAAAAAAAAAAAAAAAAAAAAAAAAAAAAAAAAAAAAAAAAAAAAAAAAAAAAAAAAAAAAAAAAAAAAAAAAAAAAAAAAAAAAAAAAAAAAAAAAAAAAAAAAAAAAAAAAAAAAAAAAAAAAAAAAAAAAAAAAAAAAAAAAAAAAAAAAAAAAAAAAAAAAAAAAAAAAAAAAAAAAAAAAAAAAAAAAAAAAAAAAAAAAAAAAAAAAAAAAAAAAAAAAAAAAAAAAAAAAAAAAAAAAAAAAAAAAAAAAAAAAAAAAAAAAAAAAAAAAAAAAAAAAAAAAAAAAAAAAAAAAAAAAAAAAAAAAAAAAAAAAAAAAAAAAAAAAAAAAPZYQKhH9k8NzLuVig6yIJreegsVq3uVo2yIaXVlW8nfp6VM+1hDahxO1xeHhtTJTW1WR/PZXd0ojKIcSN2YdtYtAeY=</c2pa:manifest></metadata><title>DataBates</title><path fill="#4a2482" d="M58.01-33.20Q58.01-46.92 50.61-54Q43.21-61.08 29.49-61.08L20.70-61.08L20.70-4.59Q26.56-4.20 34.62-4.20Q46.63-4.20 52.32-11.28Q58.01-18.36 58.01-33.20M2.88-65.48L32.62-65.48Q50.73-65.48 59.47-57.40Q68.21-49.32 68.21-33.11Q68.21-16.70 59.79-8.25Q51.37 0.20 34.62 0.20L2.88 0L2.88-2.59L11.28-3.91L11.28-61.62L2.88-62.89L2.88-65.48M93.42-46.92Q100.94-46.92 104.48-43.85Q108.02-40.77 108.02-34.42L108.02-3.42L113.73-2.20L113.73 0L101.14 0L100.21-4.59Q94.64 0.98 86 0.98Q74.23 0.98 74.23-12.70Q74.23-17.29 76.01-20.29Q77.80-23.29 81.70-24.88Q85.61-26.46 93.03-26.61L99.92-26.81L99.92-33.98Q99.92-38.72 98.18-40.97Q96.45-43.21 92.84-43.21Q87.95-43.21 83.90-40.92L82.24-35.21L79.51-35.21L79.51-45.21Q87.42-46.92 93.42-46.92M99.92-7.08L99.92-23.39L93.52-23.19Q86.98-22.95 84.66-20.65Q82.34-18.36 82.34-12.99Q82.34-4.39 89.32-4.39Q92.64-4.39 95.06-5.15Q97.47-5.91 99.92-7.08M129.91 0.98Q125.22 0.98 122.90-1.81Q120.58-4.59 120.58-9.62L120.58-41.80L114.58-41.80L114.58-43.99L120.68-45.90L125.61-56.30L128.69-56.30L128.69-45.90L139.19-45.90L139.19-41.80L128.69-41.80L128.69-10.50Q128.69-7.32 130.13-5.71Q131.57-4.10 133.91-4.10Q136.75-4.10 140.80-4.88L140.80-1.71Q139.09-0.54 135.87 0.22Q132.64 0.98 129.91 0.98M162.59-46.92Q170.11-46.92 173.65-43.85Q177.19-40.77 177.19-34.42L177.19-3.42L182.90-2.20L182.90 0L170.30 0L169.38-4.59Q163.81 0.98 155.17 0.98Q143.40 0.98 143.40-12.70Q143.40-17.29 145.18-20.29Q146.96-23.29 150.87-24.88Q154.78-26.46 162.20-26.61L169.08-26.81L169.08-33.98Q169.08-38.72 167.35-40.97Q165.62-43.21 162-43.21Q157.12-43.21 153.07-40.92L151.41-35.21L148.67-35.21L148.67-45.21Q156.58-46.92 162.59-46.92M169.08-7.08L169.08-23.39L162.69-23.19Q156.14-22.95 153.83-20.65Q151.51-18.36 151.51-12.99Q151.51-4.39 158.49-4.39Q161.81-4.39 164.23-5.15Q166.64-5.91 169.08-7.08M229.55-49.61Q229.55-55.62 225.79-58.35Q222.03-61.08 213.58-61.08L203.47-61.08L203.47-36.33L214.17-36.33Q222.08-36.33 225.81-39.45Q229.55-42.58 229.55-49.61M234.48-18.65Q234.48-25.54 229.89-28.74Q225.30-31.93 215.19-31.93L203.47-31.93L203.47-4.39Q210.21-4.10 217.83-4.10Q226.18-4.10 230.33-7.64Q234.48-11.18 234.48-18.65M198.15 0L185.65 0L185.65-2.59L194.05-3.91L194.05-61.62L185.65-62.89L185.65-65.48L215.58-65.48Q228.03-65.48 233.79-61.79Q239.56-58.11 239.56-50.10Q239.56-44.34 236.02-40.28Q232.48-36.23 226.08-34.86Q234.92-33.94 239.75-29.71Q244.59-25.49 244.59-18.85Q244.59-9.42 238.07-4.57Q231.55 0.29 219.05 0.29L198.15 0M270.67-46.92Q278.19-46.92 281.73-43.85Q285.27-40.77 285.27-34.42L285.27-3.42L290.99-2.20L290.99 0L278.39 0L277.46-4.59Q271.89 0.98 263.25 0.98Q251.48 0.98 251.48-12.70Q251.48-17.29 253.27-20.29Q255.05-23.29 258.96-24.88Q262.86-26.46 270.28-26.61L277.17-26.81L277.17-33.98Q277.17-38.72 275.43-40.97Q273.70-43.21 270.09-43.21Q265.21-43.21 261.15-40.92L259.49-35.21L256.76-35.21L256.76-45.21Q264.67-46.92 270.67-46.92M277.17-7.08L277.17-23.39L270.77-23.19Q264.23-22.95 261.91-20.65Q259.59-18.36 259.59-12.99Q259.59-4.39 266.57-4.39Q269.89-4.39 272.31-5.15Q274.73-5.91 277.17-7.08M307.16 0.98Q302.47 0.98 300.16-1.81Q297.84-4.59 297.84-9.62L297.84-41.80L291.83-41.80L291.83-43.99L297.93-45.90L302.87-56.30L305.94-56.30L305.94-45.90L316.44-45.90L316.44-41.80L305.94-41.80L305.94-10.50Q305.94-7.32 307.38-5.71Q308.82-4.10 311.17-4.10Q314-4.10 318.05-4.88L318.05-1.71Q316.34-0.54 313.12 0.22Q309.90 0.98 307.16 0.98M358.05-23.10L329.83-23.10L329.83-22.22Q329.83-15.48 331.32-11.74Q332.81-8.01 335.91-6.05Q339.01-4.10 344.04-4.10Q346.68-4.10 350.29-4.54Q353.90-4.98 356.25-5.52L356.25-2.78Q353.90-1.27 349.88-0.15Q345.85 0.98 341.65 0.98Q330.96 0.98 326-4.79Q321.04-10.55 321.04-23.29Q321.04-35.30 326.07-41.21Q331.10-47.12 340.43-47.12Q358.05-47.12 358.05-27.10L358.05-23.10M340.43-43.21Q335.35-43.21 332.64-39.11Q329.93-35.01 329.93-27L349.56-27Q349.56-35.74 347.31-39.48Q345.07-43.21 340.43-43.21M395.32-12.89Q395.32-6.05 391-2.54Q386.68 0.98 378.23 0.98Q374.82 0.98 370.69 0.27Q366.56-0.44 364.22-1.32L364.22-12.60L366.42-12.60L368.81-6.20Q372.47-2.88 378.33-2.88Q387.80-2.88 387.80-10.99Q387.80-16.94 380.33-19.48L375.99-20.90Q371.06-22.51 368.81-24.17Q366.56-25.83 365.34-28.25Q364.12-30.66 364.12-34.08Q364.12-40.14 368.25-43.63Q372.38-47.12 379.41-47.12Q384.44-47.12 392-45.61L392-35.60L389.71-35.60L387.66-40.92Q385.07-43.21 379.50-43.21Q375.55-43.21 373.47-41.26Q371.40-39.31 371.40-35.99Q371.40-33.20 373.28-31.30Q375.16-29.39 378.97-28.12Q386.14-25.68 388.34-24.56Q390.54-23.44 392.08-21.80Q393.62-20.17 394.47-18.07Q395.32-15.97 395.32-12.89"/></svg>
